<svg width="16" height="16" viewBox="0 0 16 16" fill="none" xmlns="http://www.w3.org/2000/svg">
    <path d="M5.66668 9.66667C6.10871 9.66667 6.53263 9.49107 6.84519 9.17851C7.15775 8.86595 7.33334 8.44203 7.33334 8C7.33334 7.08 7.00001 6.66667 6.66668 6C5.95201 4.57133 6.51734 3.29733 8.00001 2C8.33334 3.66667 9.33335 5.26667 10.6667 6.33333C12 7.4 12.6667 8.66667 12.6667 10C12.6667 10.6128 12.546 11.2197 12.3115 11.7859C12.0769 12.352 11.7332 12.8665 11.2998 13.2998C10.8665 13.7332 10.3521 14.0769 9.78587 14.3114C9.21968 14.546 8.61285 14.6667 8.00001 14.6667C7.38718 14.6667 6.78034 14.546 6.21415 14.3114C5.64797 14.0769 5.13352 13.7332 4.70018 13.2998C4.26684 12.8665 3.92309 12.352 3.68857 11.7859C3.45405 11.2197 3.33334 10.6128 3.33334 10C3.33334 9.23133 3.62201 8.47067 4.00001 8C4.00001 8.44203 4.17561 8.86595 4.48817 9.17851C4.80073 9.49107 5.22465 9.66667 5.66668 9.66667V9.66667Z" stroke="white" stroke-width="1.5" stroke-linecap="round" stroke-linejoin="round"/>
</svg>