<svg width="127" height="63" viewBox="0 0 127 63" fill="none" xmlns="http://www.w3.org/2000/svg">
    <path d="M17.309 33.0081C21.2188 33.0081 24.6024 30.79 24.6024 27.2937C24.6024 20.3387 14.0383 23.0831 14.0383 19.3236C14.0383 17.8574 15.5421 16.9552 17.2714 16.9552C18.9632 16.9552 20.467 17.5191 21.2564 19.1357L24.1136 17.5191C22.9482 15.3762 20.6173 13.7972 17.1962 13.7972C13.1736 13.7972 10.3164 16.1657 10.3164 19.3988C10.3164 26.429 20.8805 23.4966 20.8805 27.3689C20.8805 28.9854 19.2639 29.8501 17.1586 29.8501C15.1285 29.8501 13.6247 29.1734 12.6849 27.3313L9.82764 28.9103C11.2563 31.6547 13.8879 33.0081 17.309 33.0081Z" fill="#1C1B2B"/>
    <path d="M33.7098 33.0833C36.1305 33.0833 37.2426 33.0833 38.4917 33.0833C38.4917 31.5515 38.4917 29.6997 38.4917 29.6997C37.3904 29.6997 36.1127 29.7821 34.0482 29.6997C31.8319 29.6113 30.4015 28.2712 30.4015 25.8651V17.4063L37.208 15.9025V12.6694L30.4015 14.1732V0H26.6797V14.1732L21.2563 15.9025V19.1357L26.6797 17.4063V25.9779C26.6797 30.1885 29.1233 33.0833 33.7098 33.0833Z" fill="#1C1B2B"/>
    <path d="M42.2136 33.0833V21.7673C42.2136 19.0605 43.7174 17.3687 46.1986 17.3687C47.2137 17.3687 47.4992 17.4652 48.4015 17.9916L50.885 15.3135C49.1686 14.1073 47.0257 13.7972 45.8603 13.7972C41.0481 13.7972 38.4917 17.1431 38.4917 21.6169C38.4917 21.6169 38.4917 28.7962 38.4917 33.0833C39.9918 33.0833 42.2136 33.0833 42.2136 33.0833Z" fill="#1C1B2B"/>
    <path d="M56.7419 33.0081C58.8411 33.0081 60.9103 33.0081 63.2677 30.1707L60.4105 28.7045C59.2244 29.5246 58.6918 29.6997 56.7043 29.6997C53.396 29.6997 50.99 27.4817 50.5764 24.3237H65.3135V22.8199C65.3135 17.6695 61.8548 13.6468 56.2908 13.6468C50.7644 13.6468 46.9673 17.9702 46.9673 23.2711C46.9673 28.9479 51.1403 33.0081 56.7419 33.0081ZM50.7268 21.9177C51.1027 19.1733 53.1329 16.9928 56.2532 16.9928C59.2984 16.9928 61.4413 18.9853 61.5916 21.9177H50.7268Z" fill="#1C1B2B"/>
    <path d="M76.4865 33.0081C80.0955 33.0081 83.0655 31.3163 84.6821 28.1584L81.8249 26.6922C80.7346 28.7223 78.7045 29.6997 76.4489 29.6997C73.1405 29.6997 70.7345 27.4817 70.3209 24.3237H85.058V22.8199C85.058 17.6695 81.5993 13.6468 76.0353 13.6468C70.5089 13.6468 66.7119 17.9702 66.7119 23.2711C66.7119 28.9479 70.8849 33.0081 76.4865 33.0081ZM70.4713 21.9177C70.8473 19.1733 72.8774 16.9928 75.9977 16.9928C79.0429 16.9928 81.1858 18.9853 81.3362 21.9177H70.4713Z" fill="#1C1B2B"/>
    <path d="M94.1255 33.0833C95.4789 33.0833 96.9451 32.6697 97.8849 32.0306V28.6095C96.9827 29.2486 95.6669 29.6997 94.4638 29.6997C92.2457 29.6997 90.8171 28.2712 90.8171 25.8651V16.88H97.8849V13.6468H90.8171V0H87.0953V13.6468H75.9297V16.88H87.0953V25.9779C87.0953 30.1885 89.5389 33.0833 94.1255 33.0833Z" fill="#1C1B2B"/>
    <path d="M7.55652 62.263C9.47384 62.263 10.7521 61.1352 11.2784 58.9171L14.3236 46.7365C14.3987 46.3605 14.5867 46.1349 14.9251 46.1349C15.301 46.1349 15.489 46.3605 15.6018 46.7365L18.6093 58.9171C19.1357 61.1352 20.4139 62.263 22.3312 62.263C24.1733 62.263 25.7147 61.1352 26.241 58.8795L29.7373 43.3529H26.2786L23.0079 58.1652C22.8951 58.6164 22.7071 58.8419 22.3688 58.8419C21.9928 58.8419 21.8049 58.6164 21.6921 58.2404L18.7221 46.2101C18.1582 43.9545 16.9176 42.9018 14.9627 42.9018C13.0077 42.9018 11.7295 43.992 11.1656 46.2477L8.15803 58.2404C8.08284 58.5788 7.85728 58.8419 7.55652 58.8419C7.14298 58.8419 6.9926 58.6164 6.87981 58.1652L3.4963 43.3529H0L3.60908 58.8795C4.13541 61.1352 5.71438 62.263 7.55652 62.263Z" fill="#1C1B2B"/>
    <path d="M39.1354 62.2254C44.6618 62.2254 48.91 57.8645 48.91 52.526C48.91 47.2628 44.6994 42.9018 39.1354 42.9018C33.609 42.9018 29.2856 47.2252 29.2856 52.526C29.2856 57.8645 33.5714 62.2254 39.1354 62.2254ZM39.1354 58.6915C35.6767 58.6915 33.0075 55.9095 33.0075 52.5636C33.0075 49.1801 35.6767 46.3981 39.1354 46.3981C42.5565 46.3981 45.1881 49.1801 45.1881 52.5636C45.1881 55.9095 42.5565 58.6915 39.1354 58.6915Z" fill="#1C1B2B"/>
    <path d="M54.1567 61.7743V50.947C54.1567 48.2402 55.6605 46.5485 58.1417 46.5485C59.1568 46.5485 60.2094 46.8116 61.1117 47.338V43.6537C60.1718 43.2026 58.9688 42.977 57.8034 42.977C52.9913 42.977 50.4348 46.3229 50.4348 50.7967V61.7743H54.1567Z" fill="#1C1B2B"/>
    <path d="M63.247 61.7743V53.9546H65.465C65.653 54.4433 65.9539 54.8945 66.3298 55.3456L72.1945 61.7743H76.781L68.8862 53.0523C68.6606 52.8644 68.5478 52.714 68.5478 52.526C68.5478 52.3381 68.6606 52.1877 68.8862 51.9997L76.8186 43.3529H72.2697L66.3673 49.7816C65.9914 50.1576 65.6906 50.5711 65.5026 51.0222H63.247V30.1572H59.5251V61.7743H63.247Z" fill="#1C1B2B"/>
    <path d="M84.4089 62.2254C89.9353 62.2254 94.1835 57.8645 94.1835 52.526C94.1835 47.2628 89.9729 42.9018 84.4089 42.9018C78.8825 42.9018 74.5591 47.2252 74.5591 52.526C74.5591 57.8645 78.8449 62.2254 84.4089 62.2254ZM84.4089 58.6915C80.9502 58.6915 78.281 55.9095 78.281 52.5636C78.281 49.1801 80.9502 46.3981 84.4089 46.3981C87.83 46.3981 90.4617 49.1801 90.4617 52.5636C90.4617 55.9095 87.83 58.6915 84.4089 58.6915Z" fill="#1C1B2B"/>
    <path d="M104.506 58.6163C101.122 58.6163 99.2799 55.6464 99.2799 52.2629V43.3529H95.5581V52.6388C95.5581 57.9772 98.7912 62.2254 104.506 62.2254C110.295 62.2254 113.528 58.0148 113.528 52.6764V43.3529H109.807V52.2253C109.807 55.6464 107.927 58.6163 104.506 58.6163Z" fill="#1C1B2B"/>
    <path d="M122.6 62.263C123.954 62.263 125.42 61.8495 126.36 61.2104V57.7893C125.457 58.4284 124.142 58.8795 122.939 58.8795C120.72 58.8795 119.292 57.4509 119.292 55.0449V46.5861H126.36V43.3529H119.292V38.5784H115.57V43.3529H111.923V46.5861H115.57V55.1576C115.57 59.3682 118.014 62.263 122.6 62.263Z" fill="#1C1B2B"/>
    <path fill-rule="evenodd" clip-rule="evenodd" d="M26.8054 2.81152L90.6343 2.81153V6.10106L26.8054 6.10105V2.81152Z" fill="#1C1B2B"/>
</svg>